<svg xmlns="http://www.w3.org/2000/svg" width="512" height="512" viewBox="0 0 512 512">
  <!-- murmur mask-icon: solid bubble + knocked-out whisper wave (monochrome for Safari) -->
  <path fill-rule="evenodd" clip-rule="evenodd" d="M256 116c96.65 0 175 64.25 175 143.5 0 79.25-78.35 143.5-175 143.5-16.86 0-33.18-1.98-48.63-5.67L145.5 435.5c-6.9 5.5-16.8.4-16.4-8.4l2.3-49.9C97.6 348.1 81 305.7 81 259.5 81 180.25 159.35 116 256 116Zm-96 140c20-40 44-40 64 0s44 40 64 0 44-40 64 0" fill="#000"/>
</svg>